<svg width="208" height="208" viewBox="0 0 208 208" fill="none" xmlns="http://www.w3.org/2000/svg">
<g filter="url(#filter0_d_39_2292)">
<ellipse cx="104" cy="100.5" rx="87" ry="87.5" fill="#DBE3F5"/>
<mask id="mask0_39_2292" style="mask-type:alpha" maskUnits="userSpaceOnUse" x="17" y="13" width="174" height="175">
<ellipse cx="104" cy="100.5" rx="87" ry="87.5" fill="#DBE3F5"/>
</mask>
<g mask="url(#mask0_39_2292)">
<path fill-rule="evenodd" clip-rule="evenodd" d="M78.5726 13.3956L86.3403 8.91089C87.4404 8.27576 88.847 8.65267 89.4822 9.75275C90.1173 10.8528 89.7404 12.2595 88.6403 12.8946L80.8726 17.3793C79.7725 18.0144 78.3658 17.6375 77.7307 16.5374C77.0956 15.4374 77.4725 14.0307 78.5726 13.3956ZM76.6915 17.1374C75.725 15.4634 76.2985 13.3229 77.9726 12.3564L85.7403 7.87166C87.4143 6.90516 89.5549 7.47872 90.5214 9.15275C91.4879 10.8268 90.9143 12.9673 89.2403 13.9338L81.4726 18.4185C79.7985 19.385 77.658 18.8115 76.6915 17.1374ZM69.0463 18.8956L38.7354 36.3956C37.6353 37.0307 37.2584 38.4374 37.8936 39.5374C38.5287 40.6375 39.9353 41.0144 41.0354 40.3793L71.3463 22.8793C72.4464 22.2442 72.8233 20.8375 72.1882 19.7374C71.553 18.6374 70.1464 18.2605 69.0463 18.8956ZM38.1354 35.3564C36.4614 36.3229 35.8878 38.4634 36.8543 40.1374C37.8208 41.8115 39.9614 42.385 41.6354 41.4185L71.9463 23.9185C73.6203 22.952 74.1939 20.8115 73.2274 19.1374C72.2609 17.4634 70.1203 16.8899 68.4463 17.8564L38.1354 35.3564ZM76.4481 37.7159L123.158 10.7478C124.258 10.1126 125.665 10.4896 126.3 11.5896C126.935 12.6897 126.558 14.0964 125.458 14.7315L78.7481 41.6996C77.648 42.3347 76.2413 41.9578 75.6062 40.8578C74.9711 39.7577 75.348 38.351 76.4481 37.7159ZM74.567 41.4578C73.6005 39.7837 74.174 37.6432 75.8481 36.6767L122.558 9.70854C124.232 8.74204 126.373 9.3156 127.339 10.9896C128.306 12.6637 127.732 14.8042 126.058 15.7707L79.3481 42.7388C77.674 43.7053 75.5335 43.1318 74.567 41.4578ZM16.982 72.0487L39.2091 59.2159C40.3091 58.5808 41.7158 58.9577 42.3509 60.0578C42.9861 61.1578 42.6091 62.5645 41.5091 63.1996L19.282 76.0324C18.1819 76.6676 16.7753 76.2906 16.1401 75.1906C15.505 74.0905 15.8819 72.6838 16.982 72.0487ZM15.1009 75.7906C14.1344 74.1165 14.708 71.976 16.382 71.0095L38.6091 58.1767C40.2831 57.2102 42.4237 57.7837 43.3902 59.4578C44.3567 61.1318 43.7831 63.2723 42.1091 64.2388L19.882 77.0717C18.208 78.0382 16.0674 77.4646 15.1009 75.7906ZM23.4244 79.8763L101.367 34.8763C102.467 34.2412 103.873 34.6181 104.509 35.7182C105.144 36.8183 104.767 38.2249 103.667 38.8601L25.7244 83.8601C24.6243 84.4952 23.2176 84.1183 22.5825 83.0182C21.9474 81.9181 22.3243 80.5115 23.4244 79.8763ZM21.5433 83.6182C20.5768 81.9442 21.1504 79.8036 22.8244 78.8371L100.767 33.8371C102.441 32.8706 104.581 33.4442 105.548 35.1182C106.514 36.7922 105.941 38.9328 104.267 39.8993L26.3244 84.8993C24.6503 85.8658 22.5098 85.2922 21.5433 83.6182ZM12.7827 86.0206L13.8981 85.3765C14.9982 84.7414 16.4048 85.1183 17.04 86.2184C17.6751 87.3185 17.2982 88.7251 16.1981 89.3603L15.0827 90.0043C13.9826 90.6394 12.5759 90.2625 11.9408 89.1624C11.3057 88.0623 11.6826 86.6557 12.7827 86.0206ZM10.9016 89.7624C9.93506 88.0884 10.5086 85.9478 12.1827 84.9813L13.2981 84.3373C14.9721 83.3708 17.1127 83.9444 18.0792 85.6184C19.0457 87.2924 18.4721 89.433 16.7981 90.3995L15.6827 91.0435C14.0086 92.01 11.8681 91.4364 10.9016 89.7624ZM135.975 14.8952L110.893 29.3765C109.793 30.0117 109.416 31.4183 110.051 32.5184C110.686 33.6185 112.093 33.9954 113.193 33.3603L138.275 18.8789C139.375 18.2438 139.752 16.8371 139.117 15.737C138.482 14.637 137.075 14.26 135.975 14.8952ZM110.293 28.3373C108.619 29.3038 108.045 31.4444 109.012 33.1184C109.978 34.7924 112.119 35.366 113.793 34.3995L138.875 19.9181C140.549 18.9516 141.123 16.811 140.156 15.137C139.19 13.463 137.049 12.8894 135.375 13.8559L110.293 28.3373ZM66.9219 43.2161L48.7354 53.7161C47.6353 54.3512 47.2584 55.7579 47.8936 56.858C48.5287 57.958 49.9353 58.3349 51.0354 57.6998L69.2219 47.1998C70.322 46.5647 70.6989 45.158 70.0638 44.058C69.4287 42.9579 68.022 42.581 66.9219 43.2161ZM48.1354 52.6769C46.4614 53.6434 45.8878 55.7839 46.8543 57.458C47.8208 59.132 49.9614 59.7055 51.6354 58.739L69.8219 48.239C71.496 47.2725 72.0695 45.132 71.103 43.458C70.1365 41.7839 67.996 41.2104 66.3219 42.1769L48.1354 52.6769ZM57.5917 37.0558L12.5584 63.0558C11.4583 63.691 11.0814 65.0976 11.7166 66.1977C12.3517 67.2978 13.7583 67.6747 14.8584 67.0395L59.8917 41.0396C60.9918 40.4044 61.3687 38.9978 60.7336 37.8977C60.0985 36.7976 58.6918 36.4207 57.5917 37.0558ZM11.9584 62.0166C10.2844 62.9831 9.71082 65.1237 10.6773 66.7977C11.6438 68.4717 13.7844 69.0453 15.4584 68.0788L60.4917 42.0788C62.1658 41.1123 62.7393 38.9717 61.7728 37.2977C60.8063 35.6237 58.6658 35.0501 56.9917 36.0166L11.9584 62.0166ZM67.118 31.5558L98.2949 13.5558C99.395 12.9207 100.802 13.2976 101.437 14.3977C102.072 15.4978 101.695 16.9044 100.595 17.5395L69.418 35.5395C68.3179 36.1747 66.9112 35.7978 66.2761 34.6977C65.641 33.5976 66.0179 32.191 67.118 31.5558ZM65.2369 35.2977C64.2704 33.6237 64.844 31.4831 66.518 30.5166L97.6949 12.5166C99.3689 11.5501 101.509 12.1237 102.476 13.7977C103.442 15.4717 102.869 17.6123 101.195 18.5788L70.018 36.5788C68.344 37.5453 66.2034 36.9717 65.2369 35.2977ZM112.269 5.48807L107.821 8.05583C106.721 8.69096 106.344 10.0976 106.979 11.1977C107.614 12.2978 109.021 12.6747 110.121 12.0396L114.569 9.47179C115.669 8.83666 116.046 7.43 115.41 6.32993C114.775 5.22985 113.369 4.85294 112.269 5.48807ZM107.221 7.0166C105.547 7.9831 104.974 10.1237 105.94 11.7977C106.907 13.4717 109.047 14.0453 110.721 13.0788L115.169 10.511C116.843 9.54452 117.416 7.40395 116.45 5.72993C115.483 4.0559 113.343 3.48234 111.669 4.44884L107.221 7.0166ZM18.8983 94.0366L66.5297 66.5366C67.6297 65.9015 69.0364 66.2784 69.6715 67.3785C70.3066 68.4785 69.9297 69.8852 68.8297 70.5203L21.1983 98.0203C20.0982 98.6555 18.6915 98.2785 18.0564 97.1785C17.4213 96.0784 17.7982 94.6717 18.8983 94.0366ZM17.0172 97.7785C16.0507 96.1044 16.6242 93.9639 18.2983 92.9974L65.9297 65.4974C67.6037 64.5309 69.7442 65.1044 70.7107 66.7785C71.6772 68.4525 71.1037 70.5931 69.4297 71.5596L21.7983 99.0596C20.1242 100.026 17.9837 99.4525 17.0172 97.7785ZM101.17 46.5366L76.0557 61.0366C74.9556 61.6717 74.5787 63.0784 75.2139 64.1785C75.849 65.2785 77.2556 65.6555 78.3557 65.0203L103.47 50.5203C104.571 49.8852 104.947 48.4785 104.312 47.3785C103.677 46.2784 102.271 45.9015 101.17 46.5366ZM75.4557 59.9974C73.7817 60.9639 73.2081 63.1044 74.1746 64.7785C75.1411 66.4525 77.2817 67.0261 78.9557 66.0596L104.07 51.5596C105.744 50.5931 106.318 48.4525 105.352 46.7785C104.385 45.1044 102.244 44.5309 100.57 45.4974L75.4557 59.9974ZM110.697 41.0366L146.62 20.2966C147.72 19.6615 149.126 20.0384 149.761 21.1385C150.397 22.2386 150.02 23.6452 148.92 24.2803L112.997 45.0203C111.897 45.6555 110.49 45.2785 109.855 44.1785C109.22 43.0784 109.597 41.6717 110.697 41.0366ZM108.816 44.7785C107.849 43.1044 108.423 40.9639 110.097 39.9974L146.02 19.2574C147.694 18.2909 149.834 18.8645 150.801 20.5385C151.767 22.2125 151.194 24.3531 149.52 25.3196L113.597 46.0596C111.923 47.0261 109.782 46.4525 108.816 44.7785ZM126.367 78.1776L48.4244 123.178C47.3243 123.813 46.9474 125.219 47.5825 126.319C48.2176 127.42 49.6243 127.796 50.7244 127.161L128.667 82.1613C129.767 81.5262 130.144 80.1195 129.509 79.0195C128.873 77.9194 127.467 77.5425 126.367 78.1776ZM47.8244 122.138C46.1504 123.105 45.5768 125.245 46.5433 126.919C47.5098 128.594 49.6503 129.167 51.3244 128.201L129.267 83.2006C130.941 82.2341 131.514 80.0935 130.548 78.4195C129.581 76.7454 127.441 76.1719 125.767 77.1384L47.8244 122.138ZM24.1756 137.178L38.898 128.678C39.9981 128.042 41.4048 128.419 42.0399 129.519C42.675 130.62 42.2981 132.026 41.198 132.661L26.4756 141.161C25.3755 141.796 23.9689 141.42 23.3337 140.319C22.6986 139.219 23.0755 137.813 24.1756 137.178ZM22.2945 140.919C21.328 139.245 21.9016 137.105 23.5756 136.138L38.298 127.638C39.9721 126.672 42.1126 127.245 43.0791 128.919C44.0456 130.594 43.4721 132.734 41.798 133.701L27.0756 142.201C25.4016 143.167 23.261 142.594 22.2945 140.919ZM180.926 46.6776L135.893 72.6776C134.793 73.3127 134.416 74.7194 135.051 75.8195C135.686 76.9195 137.093 77.2965 138.193 76.6613L183.226 50.6613C184.326 50.0262 184.703 48.6195 184.068 47.5195C183.433 46.4194 182.026 46.0425 180.926 46.6776ZM135.293 71.6384C133.619 72.6049 133.045 74.7454 134.012 76.4195C134.978 78.0935 137.119 78.6671 138.793 77.7006L183.826 51.7006C185.5 50.7341 186.074 48.5935 185.107 46.9195C184.141 45.2454 182 44.6719 180.326 45.6384L135.293 71.6384ZM19.1756 128.517L64.2089 102.517C65.309 101.882 66.7156 102.259 67.3508 103.359C67.9859 104.459 67.609 105.866 66.5089 106.501L21.4756 132.501C20.3755 133.136 18.9689 132.759 18.3337 131.659C17.6986 130.559 18.0755 129.152 19.1756 128.517ZM17.2945 132.259C16.328 130.585 16.9016 128.445 18.5756 127.478L63.6089 101.478C65.2829 100.512 67.4235 101.085 68.39 102.759C69.3565 104.433 68.7829 106.574 67.1089 107.54L22.0756 133.54C20.4016 134.507 18.261 133.933 17.2945 132.259ZM91.9219 86.5174L73.7354 97.0174C72.6353 97.6525 72.2584 99.0592 72.8936 100.159C73.5287 101.259 74.9353 101.636 76.0354 101.001L94.2219 90.5011C95.322 89.866 95.6989 88.4593 95.0638 87.3592C94.4287 86.2592 93.022 85.8822 91.9219 86.5174ZM73.1354 95.9781C71.4614 96.9446 70.8878 99.0852 71.8543 100.759C72.8208 102.433 74.9614 103.007 76.6354 102.04L94.8219 91.5403C96.496 90.5738 97.0695 88.4332 96.103 86.7592C95.1365 85.0852 92.996 84.5116 91.3219 85.4781L73.1354 95.9781ZM101.448 81.0172L173 39.7064C174.1 39.0713 175.507 39.4482 176.142 40.5483C176.777 41.6483 176.4 43.055 175.3 43.6901L103.748 85.0009C102.648 85.636 101.241 85.2591 100.606 84.159C99.9711 83.059 100.348 81.6523 101.448 81.0172ZM99.567 84.759C98.6005 83.085 99.174 80.9444 100.848 79.9779L172.4 38.6672C174.074 37.7007 176.215 38.2743 177.181 39.9483C178.148 41.6223 177.574 43.7629 175.9 44.7294L104.348 86.0401C102.674 87.0066 100.533 86.4331 99.567 84.759ZM54.209 85.1968L14.4238 108.167C13.3237 108.802 12.9468 110.209 13.5819 111.309C14.217 112.409 15.6237 112.786 16.7238 112.151L56.509 89.1806C57.6091 88.5454 57.986 87.1388 57.3509 86.0387C56.7157 84.9386 55.3091 84.5617 54.209 85.1968ZM13.8238 107.128C12.1497 108.094 11.5762 110.235 12.5427 111.909C13.5092 113.583 15.6497 114.156 17.3238 113.19L57.109 90.2198C58.783 89.2533 59.3566 87.1127 58.3901 85.4387C57.4236 83.7647 55.283 83.1911 53.609 84.1576L13.8238 107.128ZM63.7354 79.6969L94.0463 62.1969C95.1464 61.5617 96.553 61.9386 97.1882 63.0387C97.8233 64.1388 97.4464 65.5454 96.3463 66.1806L66.0354 83.6806C64.9353 84.3157 63.5287 83.9388 62.8936 82.8387C62.2584 81.7386 62.6353 80.332 63.7354 79.6969ZM61.8543 83.4387C60.8878 81.7647 61.4614 79.6241 63.1354 78.6576L93.4463 61.1576C95.1203 60.1911 97.2609 60.7647 98.2274 62.4387C99.1939 64.1127 98.6203 66.2533 96.9463 67.2198L66.6354 84.7198C64.9614 85.6863 62.8208 85.1127 61.8543 83.4387ZM155.151 26.918L103.573 56.6969C102.472 57.332 102.096 58.7386 102.731 59.8387C103.366 60.9388 104.772 61.3157 105.873 60.6806L157.451 30.9017C158.551 30.2666 158.928 28.8599 158.293 27.7599C157.658 26.6598 156.251 26.2829 155.151 26.918ZM102.973 55.6576C101.299 56.6241 100.725 58.7647 101.691 60.4387C102.658 62.1127 104.799 62.6863 106.473 61.7198L158.051 31.941C159.725 30.9745 160.299 28.8339 159.332 27.1599C158.366 25.4859 156.225 24.9123 154.551 25.8788L102.973 55.6576ZM37.5584 106.357L82.5917 80.3571C83.6918 79.722 85.0985 80.0989 85.7336 81.199C86.3687 82.299 85.9918 83.7057 84.8917 84.3408L39.8584 110.341C38.7583 110.976 37.3517 110.599 36.7166 109.499C36.0814 108.399 36.4583 106.992 37.5584 106.357ZM35.6773 110.099C34.7108 108.425 35.2844 106.284 36.9584 105.318L81.9917 79.3179C83.6658 78.3514 85.8063 78.9249 86.7728 80.599C87.7393 82.273 87.1658 84.4136 85.4917 85.38L40.4584 111.38C38.7844 112.347 36.6438 111.773 35.6773 110.099ZM123.295 56.8571L92.118 74.8571C91.0179 75.4922 90.641 76.8989 91.2761 77.999C91.9112 79.099 93.3179 79.4759 94.418 78.8408L125.595 60.8408C126.695 60.2057 127.072 58.799 126.437 57.699C125.802 56.5989 124.395 56.222 123.295 56.8571ZM91.518 73.8179C89.844 74.7844 89.2704 76.9249 90.2369 78.599C91.2034 80.273 93.344 80.8465 95.018 79.88L126.195 61.88C127.869 60.9135 128.442 58.773 127.476 57.099C126.509 55.4249 124.369 54.8514 122.695 55.8179L91.518 73.8179ZM132.821 51.3571L164.606 33.0059C165.706 32.3708 167.113 32.7477 167.748 33.8478C168.383 34.9479 168.006 36.3545 166.906 36.9897L135.121 55.3408C134.021 55.976 132.614 55.599 131.979 54.499C131.344 53.3989 131.721 51.9922 132.821 51.3571ZM130.94 55.099C129.974 53.4249 130.547 51.2844 132.221 50.3179L164.006 31.9667C165.68 31.0002 167.821 31.5738 168.787 33.2478C169.754 34.9218 169.18 37.0624 167.506 38.0289L135.721 56.3801C134.047 57.3466 131.907 56.773 130.94 55.099ZM28.0321 111.857L14.1757 119.857C13.0756 120.492 12.6987 121.899 13.3339 122.999C13.969 124.099 15.3756 124.476 16.4757 123.841L30.3321 115.841C31.4322 115.206 31.8091 113.799 31.174 112.699C30.5389 111.599 29.1322 111.222 28.0321 111.857ZM13.5757 118.818C11.9017 119.784 11.3281 121.925 12.2946 123.599C13.2611 125.273 15.4017 125.847 17.0757 124.88L30.9321 116.88C32.6061 115.914 33.1797 113.773 32.2132 112.099C31.2467 110.425 29.1061 109.851 27.4321 110.818L13.5757 118.818ZM83.7354 114.338L131.367 86.8379C132.467 86.2027 133.874 86.5797 134.509 87.6797C135.144 88.7798 134.767 90.1865 133.667 90.8216L86.0354 118.322C84.9353 118.957 83.5287 118.58 82.8936 117.48C82.2584 116.38 82.6353 114.973 83.7354 114.338ZM81.8543 118.08C80.8878 116.406 81.4614 114.265 83.1354 113.299L130.767 85.7987C132.441 84.8322 134.581 85.4057 135.548 87.0797C136.514 88.7538 135.941 90.8943 134.267 91.8608L86.6354 119.361C84.9614 120.327 82.8208 119.754 81.8543 118.08ZM180.73 58.3379L155.616 72.8379C154.515 73.473 154.139 74.8797 154.774 75.9797C155.409 77.0798 156.815 77.4567 157.916 76.8216L183.03 62.3216C184.13 61.6865 184.507 60.2798 183.872 59.1797C183.237 58.0797 181.83 57.7028 180.73 58.3379ZM155.016 71.7987C153.342 72.7652 152.768 74.9057 153.734 76.5797C154.701 78.2538 156.842 78.8273 158.516 77.8608L183.63 63.3608C185.304 62.3943 185.878 60.2538 184.911 58.5797C183.945 56.9057 181.804 56.3322 180.13 57.2987L155.016 71.7987ZM29.1756 145.838L74.2089 119.838C75.309 119.203 76.7156 119.58 77.3508 120.68C77.9859 121.78 77.609 123.186 76.5089 123.822L31.4756 149.822C30.3755 150.457 28.9689 150.08 28.3337 148.98C27.6986 147.88 28.0755 146.473 29.1756 145.838ZM27.2945 149.58C26.328 147.906 26.9016 145.765 28.5756 144.799L73.6089 118.799C75.2829 117.832 77.4235 118.406 78.39 120.08C79.3565 121.754 78.7829 123.894 77.1089 124.861L32.0756 150.861C30.4016 151.827 28.261 151.254 27.2945 149.58ZM151.367 121.479L73.4244 166.479C72.3243 167.114 71.9474 168.521 72.5825 169.621C73.2176 170.721 74.6243 171.098 75.7244 170.463L153.667 125.463C154.767 124.827 155.144 123.421 154.509 122.321C153.873 121.221 152.467 120.844 151.367 121.479ZM72.8244 165.44C71.1503 166.406 70.5768 168.547 71.5433 170.221C72.5098 171.895 74.6503 172.468 76.3244 171.502L154.267 126.502C155.941 125.535 156.514 123.395 155.548 121.721C154.581 120.047 152.441 119.473 150.767 120.44L72.8244 165.44ZM57.6331 175.596L63.8982 171.979C64.9983 171.344 66.405 171.721 67.0401 172.821C67.6752 173.921 67.2983 175.328 66.1982 175.963L59.9331 179.58C58.833 180.215 57.4264 179.838 56.7913 178.738C56.1561 177.638 56.533 176.231 57.6331 175.596ZM55.752 179.338C54.7855 177.664 55.3591 175.523 57.0331 174.557L63.2982 170.94C64.9722 169.973 67.1128 170.547 68.0793 172.221C69.0458 173.895 68.4722 176.036 66.7982 177.002L60.5331 180.619C58.8591 181.586 56.7185 181.012 55.752 179.338ZM192.857 97.5247L160.893 115.979C159.793 116.614 159.416 118.021 160.051 119.121C160.686 120.221 162.093 120.598 163.193 119.963L195.157 101.508C196.257 100.873 196.634 99.4666 195.999 98.3666C195.364 97.2665 193.957 96.8896 192.857 97.5247ZM160.293 114.94C158.619 115.906 158.045 118.047 159.012 119.721C159.978 121.395 162.119 121.969 163.793 121.002L195.757 102.548C197.431 101.581 198.004 99.4406 197.038 97.7666C196.071 96.0925 193.931 95.519 192.257 96.4855L160.293 114.94ZM49.8301 168.554L89.2089 145.818C90.309 145.183 91.7157 145.56 92.3508 146.66C92.9859 147.76 92.609 149.167 91.5089 149.802L52.1301 172.538C51.0301 173.173 49.6234 172.796 48.9883 171.696C48.3532 170.596 48.7301 169.189 49.8301 168.554ZM47.9491 172.296C46.9826 170.622 47.5561 168.481 49.2301 167.515L88.6089 144.779C90.283 143.813 92.4235 144.386 93.39 146.06C94.3565 147.734 93.783 149.875 92.1089 150.841L52.7301 173.577C51.0561 174.543 48.9155 173.97 47.9491 172.296ZM116.922 129.819L98.7354 140.319C97.6353 140.954 97.2584 142.36 97.8936 143.46C98.5287 144.561 99.9353 144.937 101.035 144.302L119.222 133.802C120.322 133.167 120.699 131.761 120.064 130.66C119.429 129.56 118.022 129.184 116.922 129.819ZM98.1354 139.279C96.4614 140.246 95.8878 142.386 96.8543 144.06C97.8208 145.735 99.9614 146.308 101.635 145.342L119.822 134.842C121.496 133.875 122.07 131.735 121.103 130.06C120.137 128.386 117.996 127.813 116.322 128.779L98.1354 139.279ZM126.448 124.318L191.35 86.8474C192.45 86.2123 193.856 86.5892 194.492 87.6893C195.127 88.7894 194.75 90.196 193.65 90.8312L128.748 128.302C127.648 128.937 126.241 128.56 125.606 127.46C124.971 126.36 125.348 124.954 126.448 124.318ZM124.567 128.06C123.6 126.386 124.174 124.246 125.848 123.279L190.75 85.8082C192.424 84.8417 194.564 85.4153 195.531 87.0893C196.497 88.7633 195.924 90.9039 194.25 91.8704L129.348 129.341C127.674 130.308 125.533 129.734 124.567 128.06ZM79.2089 128.498L34.1756 154.498C33.0755 155.133 32.6986 156.54 33.3337 157.64C33.9689 158.74 35.3755 159.117 36.4756 158.482L81.5089 132.482C82.609 131.847 82.9859 130.44 82.3508 129.34C81.7156 128.24 80.309 127.863 79.2089 128.498ZM33.5756 153.459C31.9016 154.425 31.328 156.566 32.2945 158.24C33.261 159.914 35.4016 160.488 37.0756 159.521L82.1089 133.521C83.7829 132.555 84.3565 130.414 83.39 128.74C82.4235 127.066 80.2829 126.492 78.6089 127.459L33.5756 153.459ZM88.7354 122.998L119.046 105.498C120.146 104.863 121.553 105.24 122.188 106.34C122.823 107.44 122.446 108.847 121.346 109.482L91.0354 126.982C89.9353 127.617 88.5287 127.24 87.8936 126.14C87.2584 125.04 87.6353 123.633 88.7354 122.998ZM86.8543 126.74C85.8878 125.066 86.4614 122.925 88.1354 121.959L118.446 104.459C120.12 103.492 122.261 104.066 123.227 105.74C124.194 107.414 123.62 109.555 121.946 110.521L91.6354 128.021C89.9614 128.988 87.8208 128.414 86.8543 126.74ZM188.328 65.4981L128.573 99.9981C127.472 100.633 127.096 102.04 127.731 103.14C128.366 104.24 129.772 104.617 130.873 103.982L190.628 69.4818C191.728 68.8467 192.105 67.4401 191.47 66.34C190.835 65.2399 189.428 64.863 188.328 65.4981ZM127.973 98.9589C126.299 99.9254 125.725 102.066 126.691 103.74C127.658 105.414 129.799 105.988 131.473 105.021L191.228 70.5211C192.902 69.5546 193.476 67.414 192.509 65.74C191.543 64.066 189.402 63.4924 187.728 64.4589L127.973 98.9589ZM62.5584 149.658L107.592 123.658C108.692 123.023 110.098 123.4 110.734 124.5C111.369 125.6 110.992 127.007 109.892 127.642L64.8584 153.642C63.7583 154.277 62.3517 153.9 61.7166 152.8C61.0814 151.7 61.4583 150.294 62.5584 149.658ZM60.6773 153.4C59.7108 151.726 60.2844 149.586 61.9584 148.619L106.992 122.619C108.666 121.653 110.806 122.226 111.773 123.9C112.739 125.574 112.166 127.715 110.492 128.681L65.4584 154.681C63.7844 155.648 61.6438 155.074 60.6773 153.4ZM148.295 100.158L117.118 118.158C116.018 118.794 115.641 120.2 116.276 121.3C116.911 122.4 118.318 122.777 119.418 122.142L150.595 104.142C151.695 103.507 152.072 102.1 151.437 101C150.802 99.9002 149.395 99.5232 148.295 100.158ZM116.518 117.119C114.844 118.086 114.27 120.226 115.237 121.9C116.203 123.574 118.344 124.148 120.018 123.181L151.195 105.181C152.869 104.215 153.442 102.074 152.476 100.4C151.509 98.7262 149.369 98.1526 147.695 99.1191L116.518 117.119ZM157.821 94.6584L190.73 75.6584C191.83 75.0232 193.237 75.4002 193.872 76.5002C194.507 77.6003 194.13 79.007 193.03 79.6421L160.121 98.6421C159.021 99.2772 157.614 98.9003 156.979 97.8002C156.344 96.7002 156.721 95.2935 157.821 94.6584ZM155.94 98.4002C154.974 96.7262 155.547 94.5856 157.221 93.6191L190.13 74.6191C191.804 73.6526 193.945 74.2262 194.911 75.9002C195.878 77.5743 195.304 79.7148 193.63 80.6813L160.721 99.6813C159.047 100.648 156.907 100.074 155.94 98.4002ZM53.032 155.158L39.1756 163.158C38.0755 163.793 37.6986 165.2 38.3337 166.3C38.9689 167.4 40.3755 167.777 41.4756 167.142L55.332 159.142C56.4321 158.507 56.809 157.1 56.1739 156C55.5387 154.9 54.1321 154.523 53.032 155.158ZM38.5756 162.119C36.9016 163.086 36.328 165.226 37.2945 166.9C38.261 168.574 40.4016 169.148 42.0756 168.181L55.932 160.181C57.606 159.215 58.1796 157.074 57.2131 155.4C56.2466 153.726 54.106 153.153 52.432 154.119L38.5756 162.119ZM140.893 81.3379L146.089 78.3379C147.189 77.7028 148.596 78.0797 149.231 79.1797C149.866 80.2798 149.489 81.6865 148.389 82.3216L143.193 85.3216C142.093 85.9567 140.686 85.5798 140.051 84.4797C139.416 83.3797 139.793 81.973 140.893 81.3379ZM139.012 85.0797C138.045 83.4057 138.619 81.2652 140.293 80.2987L145.489 77.2987C147.163 76.3322 149.304 76.9057 150.27 78.5797C151.237 80.2538 150.663 82.3943 148.989 83.3608L143.793 86.3608C142.119 87.3273 139.978 86.7538 139.012 85.0797ZM101.807 161.639L68.66 180.777C67.5599 181.412 67.183 182.819 67.8181 183.919C68.4532 185.019 69.8599 185.396 70.96 184.76L104.107 165.623C105.207 164.988 105.584 163.581 104.949 162.481C104.314 161.381 102.907 161.004 101.807 161.639ZM68.06 179.738C66.3859 180.704 65.8124 182.845 66.7789 184.519C67.7454 186.193 69.8859 186.766 71.56 185.8L104.707 166.662C106.381 165.696 106.955 163.555 105.988 161.881C105.022 160.207 102.881 159.634 101.207 160.6L68.06 179.738ZM126.056 147.639L151.17 133.139C152.271 132.504 153.677 132.881 154.312 133.981C154.947 135.081 154.571 136.488 153.47 137.123L128.356 151.623C127.256 152.258 125.849 151.881 125.214 150.781C124.579 149.681 124.956 148.274 126.056 147.639ZM124.175 151.381C123.208 149.707 123.782 147.566 125.456 146.6L150.57 132.1C152.244 131.133 154.385 131.707 155.352 133.381C156.318 135.055 155.744 137.196 154.07 138.162L128.956 152.662C127.282 153.629 125.141 153.055 124.175 151.381ZM190.944 110.176L160.697 127.639C159.597 128.274 159.22 129.681 159.855 130.781C160.49 131.881 161.897 132.258 162.997 131.623L193.244 114.16C194.344 113.524 194.721 112.118 194.086 111.018C193.451 109.918 192.044 109.541 190.944 110.176ZM160.097 126.6C158.423 127.566 157.849 129.707 158.816 131.381C159.782 133.055 161.923 133.629 163.597 132.662L193.844 115.199C195.518 114.232 196.092 112.092 195.125 110.418C194.159 108.744 192.018 108.17 190.344 109.137L160.097 126.6ZM123.735 183.62L141.922 173.12C143.022 172.485 144.429 172.862 145.064 173.962C145.699 175.062 145.322 176.468 144.222 177.104L126.035 187.604C124.935 188.239 123.529 187.862 122.894 186.762C122.258 185.662 122.635 184.255 123.735 183.62ZM121.854 187.362C120.888 185.688 121.461 183.547 123.135 182.581L141.322 172.081C142.996 171.114 145.137 171.688 146.103 173.362C147.07 175.036 146.496 177.176 144.822 178.143L126.635 188.643C124.961 189.609 122.821 189.036 121.854 187.362ZM179.059 151.679L151.448 167.62C150.348 168.255 149.971 169.662 150.606 170.762C151.241 171.862 152.648 172.239 153.748 171.603L181.359 155.662C182.459 155.027 182.836 153.621 182.201 152.52C181.566 151.42 180.159 151.043 179.059 151.679ZM150.848 166.58C149.174 167.547 148.6 169.688 149.567 171.362C150.533 173.036 152.674 173.609 154.348 172.643L181.959 156.702C183.633 155.735 184.206 153.594 183.24 151.92C182.273 150.246 180.133 149.673 178.459 150.639L150.848 166.58ZM81.7859 184.745L104.209 171.799C105.309 171.164 106.716 171.541 107.351 172.641C107.986 173.741 107.609 175.148 106.509 175.783L84.086 188.729C82.9859 189.364 81.5792 188.987 80.9441 187.887C80.309 186.787 80.6859 185.38 81.7859 184.745ZM79.9049 188.487C78.9384 186.813 79.5119 184.673 81.1859 183.706L103.609 170.76C105.283 169.794 107.423 170.367 108.39 172.041C109.356 173.715 108.783 175.856 107.109 176.822L84.686 189.768C83.0119 190.735 80.8714 190.161 79.9049 188.487ZM144.046 148.799L113.735 166.299C112.635 166.935 112.258 168.341 112.894 169.441C113.529 170.541 114.935 170.918 116.035 170.283L146.346 152.783C147.446 152.148 147.823 150.741 147.188 149.641C146.553 148.541 145.146 148.164 144.046 148.799ZM113.135 165.26C111.461 166.227 110.888 168.367 111.854 170.041C112.821 171.715 114.961 172.289 116.635 171.322L146.946 153.822C148.62 152.856 149.194 150.715 148.227 149.041C147.261 147.367 145.12 146.794 143.446 147.76L113.135 165.26ZM153.573 143.299L188.786 122.969C189.886 122.334 191.293 122.711 191.928 123.811C192.563 124.911 192.186 126.317 191.086 126.953L155.873 147.283C154.772 147.918 153.366 147.541 152.731 146.441C152.096 145.341 152.472 143.935 153.573 143.299ZM151.691 147.041C150.725 145.367 151.299 143.227 152.973 142.26L188.186 121.93C189.86 120.963 192.001 121.537 192.967 123.211C193.934 124.885 193.36 127.025 191.686 127.992L156.473 148.322C154.799 149.289 152.658 148.715 151.691 147.041ZM132.592 166.96L95.2369 188.526C94.1368 189.161 93.7599 190.568 94.395 191.668C95.0301 192.768 96.4368 193.145 97.5369 192.51L134.892 170.943C135.992 170.308 136.369 168.901 135.733 167.801C135.098 166.701 133.692 166.324 132.592 166.96ZM94.6369 187.487C92.9629 188.454 92.3893 190.594 93.3558 192.268C94.3223 193.942 96.4629 194.516 98.1369 193.549L135.492 171.983C137.166 171.016 137.739 168.875 136.773 167.201C135.806 165.527 133.666 164.954 131.992 165.92L94.6369 187.487ZM142.118 161.46L173.295 143.46C174.395 142.825 175.802 143.201 176.437 144.301C177.072 145.402 176.695 146.808 175.595 147.443L144.418 165.443C143.318 166.078 141.911 165.702 141.276 164.601C140.641 163.501 141.018 162.095 142.118 161.46ZM140.237 165.201C139.27 163.527 139.844 161.387 141.518 160.42L172.695 142.42C174.369 141.454 176.509 142.027 177.476 143.701C178.442 145.376 177.869 147.516 176.195 148.483L145.018 166.483C143.344 167.449 141.203 166.876 140.237 165.201ZM186.67 135.737L182.821 137.96C181.721 138.595 181.344 140.001 181.979 141.102C182.614 142.202 184.021 142.578 185.121 141.943L188.97 139.721C190.07 139.086 190.447 137.679 189.812 136.579C189.177 135.479 187.77 135.102 186.67 135.737ZM182.221 136.92C180.547 137.887 179.974 140.027 180.94 141.702C181.907 143.376 184.047 143.949 185.721 142.983L189.57 140.76C191.244 139.794 191.818 137.653 190.851 135.979C189.885 134.305 187.744 133.732 186.07 134.698L182.221 136.92ZM111.333 156.139L116.529 153.139C117.63 152.504 119.036 152.881 119.671 153.981C120.306 155.081 119.93 156.488 118.829 157.123L113.633 160.123C112.533 160.758 111.127 160.381 110.491 159.281C109.856 158.181 110.233 156.774 111.333 156.139ZM109.452 159.881C108.486 158.207 109.059 156.066 110.733 155.1L115.929 152.1C117.603 151.133 119.744 151.707 120.711 153.381C121.677 155.055 121.103 157.196 119.429 158.162L114.233 161.162C112.559 162.129 110.419 161.555 109.452 159.881Z" fill="white"/>
</g>
<path d="M126.5 82C126.5 83.1935 126.026 84.3381 125.182 85.182C124.338 86.0259 123.193 86.5 122 86.5C120.807 86.5 119.662 86.0259 118.818 85.182C117.974 84.3381 117.5 83.1935 117.5 82C117.5 80.8065 117.974 79.6619 118.818 78.818C119.662 77.9741 120.807 77.5 122 77.5C123.193 77.5 124.338 77.9741 125.182 78.818C126.026 79.6619 126.5 80.8065 126.5 82ZM115.25 64C101.408 64 90.5 74.908 90.5 88.75C90.5 90.5365 90.68 92.332 91.049 94.0375C91.31 95.2525 91.013 96.3055 90.41 96.9085L69.98 117.338C69.352 117.966 68.8538 118.711 68.514 119.531C68.1743 120.351 67.9996 121.23 68 122.118V129.25C68 131.04 68.7112 132.757 69.977 134.023C71.2429 135.289 72.9598 136 74.75 136H83.75C85.5402 136 87.2571 135.289 88.523 134.023C89.7888 132.757 90.5 131.04 90.5 129.25V127H95C96.1935 127 97.3381 126.526 98.182 125.682C99.0259 124.838 99.5 123.693 99.5 122.5V118H104C105.193 118 106.338 117.526 107.182 116.682C108.026 115.838 108.5 114.693 108.5 113.5V112.69C110.718 113.293 113.032 113.5 115.25 113.5C129.092 113.5 140 102.592 140 88.75C140 74.908 129.092 64 115.25 64ZM95 88.75C95 77.392 103.892 68.5 115.25 68.5C126.608 68.5 135.5 77.392 135.5 88.75C135.5 100.108 126.608 109 115.25 109C112.28 109 109.521 108.572 107.258 107.438C106.915 107.267 106.534 107.185 106.15 107.202C105.767 107.219 105.394 107.334 105.068 107.536C104.742 107.737 104.472 108.019 104.285 108.354C104.098 108.689 104 109.066 104 109.45V113.5H99.5C98.3065 113.5 97.1619 113.974 96.318 114.818C95.4741 115.662 95 116.807 95 118V122.5H90.5C89.3065 122.5 88.1619 122.974 87.318 123.818C86.4741 124.662 86 125.807 86 127V129.25C86 129.847 85.7629 130.419 85.341 130.841C84.919 131.263 84.3467 131.5 83.75 131.5H74.75C74.1533 131.5 73.581 131.263 73.159 130.841C72.7371 130.419 72.5 129.847 72.5 129.25V122.113C72.5001 121.517 72.7364 120.946 73.157 120.524L93.5915 100.09C95.5355 98.146 95.9405 95.392 95.4455 93.088C95.1453 91.6616 94.996 90.2076 95 88.75Z" fill="#111111"/>
<circle cx="104" cy="100" r="98" stroke="#DBE3F5" stroke-width="4"/>
</g>
<defs>
<filter id="filter0_d_39_2292" x="0" y="0" width="208" height="208" filterUnits="userSpaceOnUse" color-interpolation-filters="sRGB">
<feFlood flood-opacity="0" result="BackgroundImageFix"/>
<feColorMatrix in="SourceAlpha" type="matrix" values="0 0 0 0 0 0 0 0 0 0 0 0 0 0 0 0 0 0 127 0" result="hardAlpha"/>
<feOffset dy="4"/>
<feGaussianBlur stdDeviation="2"/>
<feComposite in2="hardAlpha" operator="out"/>
<feColorMatrix type="matrix" values="0 0 0 0 0 0 0 0 0 0 0 0 0 0 0 0 0 0 0.25 0"/>
<feBlend mode="normal" in2="BackgroundImageFix" result="effect1_dropShadow_39_2292"/>
<feBlend mode="normal" in="SourceGraphic" in2="effect1_dropShadow_39_2292" result="shape"/>
</filter>
</defs>
</svg>
