<svg width="83" height="28" viewBox="0 0 83 28" fill="none" xmlns="http://www.w3.org/2000/svg">
<g filter="url(#filter0_d_72_1971)">
<path d="M4 19.8605V7.44432H5.79616L10.4871 18.1341H9.63263L14.2887 7.44432H16.0849V19.8605H14.0794L14.062 10.6704L14.6549 10.8099L10.7836 19.8605H9.3013L5.34276 10.8099L5.97055 10.6704L5.98799 19.8605H4Z" fill="#111111"/>
<path d="M19.7053 19.8605H17.4383L23.0534 7.44432H24.8845L30.4997 19.8605H28.2676L23.6987 9.18817H24.309L19.7053 19.8605ZM19.9145 16.9483L20.769 15.2044H27.0992L27.9188 16.9483H19.9145Z" fill="#111111"/>
<path d="M31.8429 19.8605V7.44432H33.5169L40.6667 16.739L40.1959 16.9832V7.44432H42.3059V19.8605H40.6144L33.4995 10.6007L33.9529 10.3217V19.8605H31.8429Z" fill="#111111"/>
<path d="M45.0069 19.8605V7.44432H53.3076V9.2056H47.2041V12.6584H52.9588V14.4371H47.2041V18.0992H53.3076V19.8605H45.0069Z" fill="#111111"/>
<path d="M55.378 19.8605V7.44432H60.6967C62.1034 7.44432 63.173 7.7524 63.9054 8.36856C64.6378 8.98472 65.004 9.86827 65.004 11.0192C65.004 12.112 64.6262 12.9839 63.8705 13.635C63.1149 14.2744 62.0627 14.5941 60.7142 14.5941L62.1092 14.3151C62.5394 14.3151 62.923 14.443 63.2602 14.6987C63.5973 14.9545 63.8647 15.3498 64.0624 15.8845L65.5969 19.8605H63.2253L61.6558 15.7276C61.4931 15.3207 61.2606 15.0475 60.9583 14.908C60.6677 14.7685 60.3015 14.6987 59.8597 14.6987H57.5927V19.8605H55.378ZM57.5752 12.9549H60.3828C61.2431 12.9549 61.8709 12.7979 62.2662 12.484C62.6615 12.1701 62.8591 11.6993 62.8591 11.0715C62.8591 10.4321 62.6615 9.96127 62.2662 9.659C61.8709 9.35674 61.2431 9.2056 60.3828 9.2056H57.5752V12.9549Z" fill="#111111"/>
<path d="M73.0478 20C71.8387 20 70.7924 19.7443 69.9089 19.2327C69.0253 18.7212 68.3452 17.9888 67.8686 17.0355C67.3919 16.0822 67.1536 14.9545 67.1536 13.6524C67.1536 12.3387 67.3919 11.211 67.8686 10.2694C68.3452 9.31605 69.0253 8.58363 69.9089 8.0721C70.7924 7.56057 71.8387 7.30481 73.0478 7.30481C74.2685 7.30481 75.3206 7.56057 76.2042 8.0721C77.0877 8.58363 77.7678 9.31605 78.2445 10.2694C78.7211 11.211 78.9595 12.3329 78.9595 13.635C78.9595 14.9487 78.7153 16.0822 78.227 17.0355C77.7504 17.9888 77.0703 18.7212 76.1867 19.2327C75.3148 19.7443 74.2685 20 73.0478 20ZM73.0478 18.2213C74.1871 18.2213 75.0823 17.8318 75.7333 17.0529C76.3844 16.2624 76.7099 15.1231 76.7099 13.635C76.7099 12.1469 76.3844 11.0192 75.7333 10.2519C75.0823 9.47299 74.1871 9.08353 73.0478 9.08353C71.9201 9.08353 71.0308 9.47299 70.3797 10.2519C69.7287 11.0192 69.4032 12.1469 69.4032 13.635C69.4032 15.1231 69.7287 16.2624 70.3797 17.0529C71.0308 17.8318 71.9201 18.2213 73.0478 18.2213Z" fill="#111111"/>
<path fill-rule="evenodd" clip-rule="evenodd" d="M44.42 0.581283H38.1228C37.775 0.581283 37.4931 0.863219 37.4931 1.21101C37.4931 1.55879 37.775 1.84073 38.1228 1.84073H44.42C44.7678 1.84073 45.0498 1.55879 45.0498 1.21101C45.0498 0.863219 44.7678 0.581283 44.42 0.581283ZM38.1228 0C37.454 0 36.9118 0.542186 36.9118 1.21101C36.9118 1.87983 37.454 2.42201 38.1228 2.42201H44.42C45.0889 2.42201 45.631 1.87983 45.631 1.21101C45.631 0.542186 45.0889 0 44.42 0H38.1228Z" fill="#111111"/>
</g>
<defs>
<filter id="filter0_d_72_1971" x="0" y="0" width="82.9595" height="28" filterUnits="userSpaceOnUse" color-interpolation-filters="sRGB">
<feFlood flood-opacity="0" result="BackgroundImageFix"/>
<feColorMatrix in="SourceAlpha" type="matrix" values="0 0 0 0 0 0 0 0 0 0 0 0 0 0 0 0 0 0 127 0" result="hardAlpha"/>
<feOffset dy="4"/>
<feGaussianBlur stdDeviation="2"/>
<feComposite in2="hardAlpha" operator="out"/>
<feColorMatrix type="matrix" values="0 0 0 0 0 0 0 0 0 0 0 0 0 0 0 0 0 0 0.25 0"/>
<feBlend mode="normal" in2="BackgroundImageFix" result="effect1_dropShadow_72_1971"/>
<feBlend mode="normal" in="SourceGraphic" in2="effect1_dropShadow_72_1971" result="shape"/>
</filter>
</defs>
</svg>
