<svg width="24" height="24" viewBox="0 0 24 24" fill="none" xmlns="http://www.w3.org/2000/svg">
<path d="M20.7744 20.7285L19.4979 6.6825C19.4619 6.2955 19.1379 6 18.7494 6H16.4994V4.5C16.4994 3.294 16.0329 2.1615 15.1854 1.314C14.3379 0.4665 13.2054 0 11.9994 0C9.51844 0 7.49944 2.019 7.49944 4.5V6H5.24944C4.86094 6 4.53694 6.2955 4.50244 6.6825L3.22594 20.7285C3.14944 21.5655 3.43144 22.4025 3.99844 23.0235C4.56544 23.6445 5.37244 24 6.21394 24H17.7864C18.6279 24 19.4349 23.6445 20.0019 23.0235C20.5689 22.4025 20.8494 21.5655 20.7744 20.7285ZM8.99944 4.5C8.99944 2.8455 10.3449 1.5 11.9994 1.5C12.8049 1.5 13.5594 1.8105 14.1249 2.3745C14.6904 2.9385 14.9994 3.6945 14.9994 4.5V6H8.99944V4.5ZM18.8934 22.0125C18.6054 22.326 18.2124 22.5 17.7849 22.5H6.21394C5.78794 22.5 5.39344 22.326 5.10694 22.011C4.81894 21.696 4.68244 21.2895 4.72144 20.8635L5.93494 7.5H7.49944V9.75C7.49944 10.164 7.83544 10.5 8.24944 10.5C8.66344 10.5 8.99944 10.164 8.99944 9.75V7.5H14.9994V9.75C14.9994 10.164 15.3354 10.5 15.7494 10.5C16.1634 10.5 16.4994 10.164 16.4994 9.75V7.5H18.0639L19.2789 20.865C19.3179 21.2895 19.1814 21.6975 18.8934 22.0125Z" fill="#626262"/>
</svg>
